HIERARCHY
ROOT Root
{
  OFFSET 0.0 0.0 0.0
  CHANNELS 6 Xposition Yposition Zposition Zrotation Yrotation Xrotation
  JOINT Hips
  {
    OFFSET 0.0 100.0 0.0
    CHANNELS 6 Xposition Yposition Zposition Zrotation Yrotation Xrotation
    JOINT Spine1
    {
      OFFSET 5.003913 -0.037094 -0.013727
      CHANNELS 3 Zrotation Yrotation Xrotation
      JOINT Spine2
      {
        OFFSET 7.125363 -1e-06 0.0
        CHANNELS 3 Zrotation Yrotation Xrotation
        JOINT Chest
        {
          OFFSET 7.594027 1e-06 0.0
          CHANNELS 3 Zrotation Yrotation Xrotation
          JOINT Neck1
          {
            OFFSET 26.313086 -0.460272 -0.181672
            CHANNELS 3 Zrotation Yrotation Xrotation
            JOINT Neck2
            {
              OFFSET 8.045911 0.0 0.0
              CHANNELS 3 Zrotation Yrotation Xrotation
              JOINT Head
              {
                OFFSET 6.432774 0.0 0.0
                CHANNELS 3 Zrotation Yrotation Xrotation
                JOINT HeadEnd
                {
                  OFFSET 16.169773 0.06451 0.00362
                  CHANNELS 3 Zrotation Yrotation Xrotation
                }
                JOINT Jaw
                {
                  OFFSET 0.108741 3.12938 0.002639
                  CHANNELS 3 Zrotation Yrotation Xrotation
                }
                JOINT LeftEye
                {
                  OFFSET 4.45173 8.166359 3.206392
                  CHANNELS 3 Zrotation Yrotation Xrotation
                }
                JOINT RightEye
                {
                  OFFSET 4.436895 8.135758 -3.222429
                  CHANNELS 3 Zrotation Yrotation Xrotation
                }
              }
            }
          }
          JOINT LeftShoulder
          {
            OFFSET 23.218927 5.195579 1.621656
            CHANNELS 3 Zrotation Yrotation Xrotation
            JOINT LeftArm
            {
              OFFSET 15.902118 2e-06 -2e-06
              CHANNELS 3 Zrotation Yrotation Xrotation
              JOINT LeftForeArm
              {
                OFFSET 28.739307 0.0 -1e-06
                CHANNELS 3 Zrotation Yrotation Xrotation
                JOINT LeftHand
                {
                  OFFSET 27.093981 -4e-06 0.0
                  CHANNELS 3 Zrotation Yrotation Xrotation
                  JOINT LeftHandThumb1
                  {
                    OFFSET 2.276781 3.380274 0.83384
                    CHANNELS 3 Zrotation Yrotation Xrotation
                    JOINT LeftHandThumb2
                    {
                      OFFSET 4.705309 -1e-06 -1e-06
                      CHANNELS 3 Zrotation Yrotation Xrotation
                      JOINT LeftHandThumb3
                      {
                        OFFSET 2.798515 0.0 3e-06
                        CHANNELS 3 Zrotation Yrotation Xrotation
                        JOINT LeftHandThumbEnd
                        {
                          OFFSET 3.180793 4e-06 -4e-06
                          CHANNELS 3 Zrotation Yrotation Xrotation
                        }
                      }
                    }
                  }
                  JOINT LeftHandIndex1
                  {
                    OFFSET 3.247786 2.352677 0.137192
                    CHANNELS 3 Zrotation Yrotation Xrotation
                    JOINT LeftHandIndex2
                    {
                      OFFSET 6.367095 1e-06 0.0
                      CHANNELS 3 Zrotation Yrotation Xrotation
                      JOINT LeftHandIndex3
                      {
                        OFFSET 3.662364 0.0 0.0
                        CHANNELS 3 Zrotation Yrotation Xrotation
                        JOINT LeftHandIndex4
                        {
                          OFFSET 2.329242 4e-06 -4e-06
                          CHANNELS 3 Zrotation Yrotation Xrotation
                          JOINT LeftHandIndexEnd
                          {
                            OFFSET 2.767823 1e-06 0.0
                            CHANNELS 3 Zrotation Yrotation Xrotation
                          }
                        }
                      }
                    }
                  }
                  JOINT LeftHandMiddle1
                  {
                    OFFSET 3.163612 0.945023 -0.406112
                    CHANNELS 3 Zrotation Yrotation Xrotation
                    JOINT LeftHandMiddle2
                    {
                      OFFSET 6.276789 3e-06 0.0
                      CHANNELS 3 Zrotation Yrotation Xrotation
                      JOINT LeftHandMiddle3
                      {
                        OFFSET 4.35652 -1e-06 4e-06
                        CHANNELS 3 Zrotation Yrotation Xrotation
                        JOINT LeftHandMiddle4
                        {
                          OFFSET 2.996877 0.0 8e-06
                          CHANNELS 3 Zrotation Yrotation Xrotation
                          JOINT LeftHandMiddleEnd
                          {
                            OFFSET 2.323256 3e-06 -4e-06
                            CHANNELS 3 Zrotation Yrotation Xrotation
                          }
                        }
                      }
                    }
                  }
                  JOINT LeftHandRing1
                  {
                    OFFSET 2.882606 -0.309162 0.107445
                    CHANNELS 3 Zrotation Yrotation Xrotation
                    JOINT LeftHandRing2
                    {
                      OFFSET 6.033198 0.0 4e-06
                      CHANNELS 3 Zrotation Yrotation Xrotation
                      JOINT LeftHandRing3
                      {
                        OFFSET 4.350578 3e-06 0.0
                        CHANNELS 3 Zrotation Yrotation Xrotation
                        JOINT LeftHandRing4
                        {
                          OFFSET 2.651321 2e-06 -7e-06
                          CHANNELS 3 Zrotation Yrotation Xrotation
                          JOINT LeftHandRingEnd
                          {
                            OFFSET 1.937663 1e-06 -4e-06
                            CHANNELS 3 Zrotation Yrotation Xrotation
                          }
                        }
                      }
                    }
                  }
                  JOINT LeftHandPinky1
                  {
                    OFFSET 2.865315 -1.525436 0.575687
                    CHANNELS 3 Zrotation Yrotation Xrotation
                    JOINT LeftHandPinky2
                    {
                      OFFSET 5.54936 1e-06 -8e-06
                      CHANNELS 3 Zrotation Yrotation Xrotation
                      JOINT LeftHandPinky3
                      {
                        OFFSET 3.070974 0.0 -4e-06
                        CHANNELS 3 Zrotation Yrotation Xrotation
                        JOINT LeftHandPinky4
                        {
                          OFFSET 1.549672 1e-06 0.0
                          CHANNELS 3 Zrotation Yrotation Xrotation
                          JOINT LeftHandPinkyEnd
                          {
                            OFFSET 1.952123 0.0 0.0
                            CHANNELS 3 Zrotation Yrotation Xrotation
                          }
                        }
                      }
                    }
                  }
                }
              }
            }
          }
          JOINT RightShoulder
          {
            OFFSET 23.161716 5.296122 -1.380114
            CHANNELS 3 Zrotation Yrotation Xrotation
            JOINT RightArm
            {
              OFFSET -16.027195 -2e-06 1.1e-05
              CHANNELS 3 Zrotation Yrotation Xrotation
              JOINT RightForeArm
              {
                OFFSET -28.736639 4e-06 2e-06
                CHANNELS 3 Zrotation Yrotation Xrotation
                JOINT RightHand
                {
                  OFFSET -27.133619 6e-06 0.0
                  CHANNELS 3 Zrotation Yrotation Xrotation
                  JOINT RightHandThumb1
                  {
                    OFFSET -2.274328 -3.351035 -0.83067
                    CHANNELS 3 Zrotation Yrotation Xrotation
                    JOINT RightHandThumb2
                    {
                      OFFSET -4.703594 -3e-06 2e-06
                      CHANNELS 3 Zrotation Yrotation Xrotation
                      JOINT RightHandThumb3
                      {
                        OFFSET -2.794935 -4e-06 -3e-06
                        CHANNELS 3 Zrotation Yrotation Xrotation
                        JOINT RightHandThumbEnd
                        {
                          OFFSET -3.183852 4e-06 1e-06
                          CHANNELS 3 Zrotation Yrotation Xrotation
                        }
                      }
                    }
                  }
                  JOINT RightHandIndex1
                  {
                    OFFSET -3.253496 -2.33755 -0.127667
                    CHANNELS 3 Zrotation Yrotation Xrotation
                    JOINT RightHandIndex2
                    {
                      OFFSET -6.344434 0.0 0.0
                      CHANNELS 3 Zrotation Yrotation Xrotation
                      JOINT RightHandIndex3
                      {
                        OFFSET -3.654871 0.0 -8e-06
                        CHANNELS 3 Zrotation Yrotation Xrotation
                        JOINT RightHandIndex4
                        {
                          OFFSET -2.327586 -1e-06 0.0
                          CHANNELS 3 Zrotation Yrotation Xrotation
                          JOINT RightHandIndexEnd
                          {
                            OFFSET -2.770001 3e-06 8e-06
                            CHANNELS 3 Zrotation Yrotation Xrotation
                          }
                        }
                      }
                    }
                  }
                  JOINT RightHandMiddle1
                  {
                    OFFSET -3.168223 -0.944764 0.411762
                    CHANNELS 3 Zrotation Yrotation Xrotation
                    JOINT RightHandMiddle2
                    {
                      OFFSET -6.266691 -1e-06 -4e-06
                      CHANNELS 3 Zrotation Yrotation Xrotation
                      JOINT RightHandMiddle3
                      {
                        OFFSET -4.348901 0.0 0.0
                        CHANNELS 3 Zrotation Yrotation Xrotation
                        JOINT RightHandMiddle4
                        {
                          OFFSET -3.00024 2e-06 -4e-06
                          CHANNELS 3 Zrotation Yrotation Xrotation
                          JOINT RightHandMiddleEnd
                          {
                            OFFSET -2.321477 -4e-06 -4e-06
                            CHANNELS 3 Zrotation Yrotation Xrotation
                          }
                        }
                      }
                    }
                  }
                  JOINT RightHandRing1
                  {
                    OFFSET -2.885654 0.293261 -0.119232
                    CHANNELS 3 Zrotation Yrotation Xrotation
                    JOINT RightHandRing2
                    {
                      OFFSET -6.032835 -1e-06 -4e-06
                      CHANNELS 3 Zrotation Yrotation Xrotation
                      JOINT RightHandRing3
                      {
                        OFFSET -4.33881 0.0 -4e-06
                        CHANNELS 3 Zrotation Yrotation Xrotation
                        JOINT RightHandRing4
                        {
                          OFFSET -2.654903 -4e-06 -4e-06
                          CHANNELS 3 Zrotation Yrotation Xrotation
                          JOINT RightHandRingEnd
                          {
                            OFFSET -1.935122 0.0 4e-06
                            CHANNELS 3 Zrotation Yrotation Xrotation
                          }
                        }
                      }
                    }
                  }
                  JOINT RightHandPinky1
                  {
                    OFFSET -2.866241 1.503904 -0.60527
                    CHANNELS 3 Zrotation Yrotation Xrotation
                    JOINT RightHandPinky2
                    {
                      OFFSET -5.553177 -2e-06 0.0
                      CHANNELS 3 Zrotation Yrotation Xrotation
                      JOINT RightHandPinky3
                      {
                        OFFSET -3.062664 -1e-06 -4e-06
                        CHANNELS 3 Zrotation Yrotation Xrotation
                        JOINT RightHandPinky4
                        {
                          OFFSET -1.546529 2e-06 4e-06
                          CHANNELS 3 Zrotation Yrotation Xrotation
                          JOINT RightHandPinkyEnd
                          {
                            OFFSET -1.952341 0.0 -4e-06
                            CHANNELS 3 Zrotation Yrotation Xrotation
                          }
                        }
                      }
                    }
                  }
                }
              }
            }
          }
        }
      }
    }
    JOINT LeftLeg
    {
      OFFSET -8.443107 2.567604 10.043214
      CHANNELS 3 Zrotation Yrotation Xrotation
      JOINT LeftShin
      {
        OFFSET 43.229198 1e-06 -1e-06
        CHANNELS 3 Zrotation Yrotation Xrotation
        JOINT LeftFoot
        {
          OFFSET 42.298611 1e-06 1e-06
          CHANNELS 3 Zrotation Yrotation Xrotation
          JOINT LeftToeBase
          {
            OFFSET 14.165858 1e-06 0.0
            CHANNELS 3 Zrotation Yrotation Xrotation
            JOINT LeftToeEnd
            {
              OFFSET 6.7141 -0.234461 0.0
              CHANNELS 3 Zrotation Yrotation Xrotation
            }
          }
        }
      }
    }
    JOINT RightLeg
    {
      OFFSET -8.303923 2.592729 -10.047278
      CHANNELS 3 Zrotation Yrotation Xrotation
      JOINT RightShin
      {
        OFFSET -43.369682 0.0 1e-06
        CHANNELS 3 Zrotation Yrotation Xrotation
        JOINT RightFoot
        {
          OFFSET -42.260784 4e-06 2e-06
          CHANNELS 3 Zrotation Yrotation Xrotation
          JOINT RightToeBase
          {
            OFFSET -14.222245 -2e-06 -1e-06
            CHANNELS 3 Zrotation Yrotation Xrotation
            JOINT RightToeEnd
            {
              OFFSET -6.660062 0.232574 -2e-06
              CHANNELS 3 Zrotation Yrotation Xrotation
            }
          }
        }
      }
    }
  }
}
MOTION
Frames: 4
Frame Time: 0.03333333333333333
0.0 0.0 0.0 0.0 -0.0 0.0 -3.884392 49.893204 -1.804823 95.726097 -56.561089 86.209114 12.588264 -3.211304 -1.251475 -5.16028 -1.698045 0.32301 21.665001 -3.071012 -1.881577 26.647217 3.488779 3.890585 -2.925588 -1.299499 2.889416 -28.787092 -0.230059 2.399524 7e-06 0.0 0.0 -0.136734 -0.071702 0.027678 0.016998 -0.085827 0.079766 -0.075421 -0.051019 -0.030505 -50.961475 -72.953964 61.129128 91.036461 -4.679898 -34.889271 28.317719 -1.607536 -0.60105 29.295303 80.127968 36.77589 17.636625 -26.322725 52.411175 -19.466652 -14.395594 29.410378 -2e-06 -8.774819 -2e-06 14.552264 -18.195444 7.183949 -0.609777 -1.795654 -3.889327 -4.807087 -11.046808 -2.937848 4e-06 -20.976009 -1e-06 -5.019968 -25.033548 -4.031881 6e-06 1e-06 1e-06 -10.634528 -5.686968 -3.565586 10.573271 -17.922945 -3.1139 2e-06 -13.821205 3e-06 -0.501779 -31.181498 -4.027013 -11.320189 -58.308247 8.248592 -13.982709 -7.150195 -2.875042 13.772723 -8.401491 -3.218239 0.347732 -34.211536 0.771656 -0.963027 -17.733362 2.621018 0.0 0.0 -2e-06 -17.346411 -20.095207 -4.20178 21.757555 -1.638375 3.866427 0.0 -6.338824 0.0 -1.697589 -22.591736 -6.194004 -2e-06 -4e-06 -1e-06 177.858643 -75.234955 9.058049 76.935242 17.917673 -32.764618 20.495911 -0.931218 -0.247207 -4.219046 55.322147 5.823269 22.182117 -20.375898 49.933319 -16.701809 -16.74353 28.476528 -1e-06 -12.690601 -2e-06 17.156832 -17.291893 2.331216 -0.10592 -1.513855 -4.275882 -5.039041 -5.612872 -2.953555 4e-06 -11.020526 -2e-06 -6.111297 -15.895334 -3.840469 -0.0 -2e-06 -0.0 -10.283371 -5.680288 -4.341839 11.028294 -11.302406 -2.372631 -1.384269 -14.238581 -6.32012 -0.62544 -26.924194 -3.827603 -3.962103 -49.55629 -4.101547 -13.708526 -7.363476 -3.720938 18.141148 -14.052737 -3.242673 4e-06 -18.787273 -1e-06 -0.429712 -8.456043 2.555504 -0.0 1e-06 0.0 -15.923536 -20.094484 -5.473583 30.419218 -7.190824 1.735928 2e-06 -8.162929 -1e-06 -1.861905 -22.861479 -6.16794 -1e-06 -3e-06 -1e-06 90.706223 -10.245734 11.250188 138.861374 0.414036 0.817965 -94.199211 21.663443 -15.774366 -21.412405 1.524402 1.91532 -0.999999 0.0 -0.0 -40.623257 -3.713999 -2.426566 94.922279 -0.884093 0.284984 -95.628998 8.462214 -8.543875 -33.132565 0.811716 1.148291 -1.000003 0.0 -1e-06 
0.0 0.0 0.0 0.0 -0.0 0.0 -3.46095 49.464493 -0.675095 95.627319 -56.766102 85.195747 12.34318 -3.111937 -1.132868 -5.275847 -1.563287 0.591462 21.559956 -3.037717 -1.494729 26.522867 2.743795 3.571304 -2.866642 -0.970051 3.072962 -29.056017 -0.220209 2.593418 6e-06 -0.0 -0.0 -0.137543 -0.068935 0.022503 0.054384 -0.09799 0.080628 -0.017286 -0.032983 -0.047255 -53.006641 -72.814392 63.719387 91.317055 -5.088421 -35.477905 28.638435 -1.775759 -0.665891 35.251804 79.724312 43.442753 17.636629 -26.322733 52.411182 -19.46666 -14.395596 29.410381 0.0 -8.774819 -2e-06 14.649448 -18.179781 7.153311 -0.609776 -1.795654 -3.889328 -4.807088 -11.046808 -2.937848 5e-06 -20.976011 1e-06 -5.019972 -25.033552 -4.031878 5e-06 -0.0 1e-06 -10.634533 -5.686968 -3.565587 10.573272 -17.922945 -3.113902 2e-06 -13.821206 2e-06 -0.501778 -31.181501 -4.027016 -11.314262 -58.508499 8.345039 -13.982714 -7.150196 -2.87504 13.772726 -8.401492 -3.21824 0.347732 -34.211544 0.771655 -0.96303 -17.733366 2.62102 1e-06 -0.0 -1e-06 -17.346415 -20.095211 -4.201779 21.757557 -1.638375 3.866428 -0.0 -6.338823 0.0 -1.697591 -22.59174 -6.194004 -0.0 -4e-06 -1e-06 177.955032 -74.873795 9.144856 78.01825 17.376728 -32.368614 19.689022 -0.768234 -0.226069 -4.181909 55.964104 5.35295 22.182116 -20.375898 49.933327 -16.701811 -16.74353 28.47653 -2e-06 -12.690601 -1e-06 17.243055 -17.400211 2.345523 -0.105919 -1.513856 -4.275881 -5.039039 -5.612871 -2.953557 4e-06 -11.020524 -2e-06 -6.111297 -15.895328 -3.840471 1e-06 -1e-06 -1e-06 -10.283369 -5.680288 -4.341838 11.028295 -11.302404 -2.372633 -1.384267 -14.238576 -6.320122 -0.625436 -26.924183 -3.8276 -3.990304 -49.880146 -4.009694 -13.708524 -7.363474 -3.72094 18.141148 -14.052739 -3.242674 7e-06 -18.78727 -1e-06 -0.429712 -8.456041 2.555505 0.0 -0.0 0.0 -15.923532 -20.094479 -5.473586 30.41921 -7.190831 1.735924 2e-06 -8.162925 0.0 -1.861902 -22.861467 -6.167939 0.0 -3e-06 -1e-06 91.474968 -10.486225 10.66064 137.149857 0.537477 0.866126 -93.064445 21.304476 -15.675204 -22.795309 1.537775 1.814054 -0.999999 0.0 -1e-06 -39.526958 -3.561147 -2.032851 93.488754 -1.155834 0.315808 -95.390747 8.97581 -8.302614 -32.65181 0.804249 1.159764 -1.000003 0.0 -1e-06 
0.0 0.0 0.0 0.0 -0.0 0.0 -2.949423 49.079674 0.608832 95.606316 -56.910797 84.166031 12.074264 -3.033155 -0.970381 -5.408067 -1.417337 0.82728 21.470167 -2.948202 -1.193799 26.563931 2.083179 3.274889 -2.834216 -0.746713 3.273028 -29.398363 -0.307863 2.826633 6e-06 -0.0 -0.0 -0.139789 -0.082121 0.022538 0.034701 -0.123785 0.077303 -0.00831 -0.033567 -0.049668 -54.955559 -72.605766 66.198578 91.463142 -5.923794 -35.682411 29.401506 -1.764533 -0.672043 38.615608 79.462326 47.493488 17.636625 -26.322733 52.411198 -19.466661 -14.395602 29.410395 -3e-06 -8.774821 -1e-06 14.846043 -18.134104 7.06303 -0.609775 -1.795654 -3.889327 -4.807087 -11.046811 -2.937849 8e-06 -20.976015 -2e-06 -5.019966 -25.033554 -4.031881 5e-06 -0.0 -0.0 -10.634533 -5.686969 -3.565587 10.573272 -17.922947 -3.113902 2e-06 -13.821209 1e-06 -0.501775 -31.181501 -4.027016 -11.303388 -58.739803 8.42662 -13.982713 -7.150197 -2.875041 13.772731 -8.401491 -3.218242 0.347735 -34.211544 0.771655 -0.963028 -17.733366 2.621022 1e-06 0.0 -1e-06 -17.346416 -20.095217 -4.201782 21.757561 -1.638376 3.866425 1e-06 -6.338823 -0.0 -1.69759 -22.591747 -6.194007 -0.0 -5e-06 -2e-06 177.493301 -74.403702 9.665789 79.211014 16.426676 -31.97036 19.133982 -0.719642 -0.234337 -4.299902 57.308048 5.309507 22.182106 -20.375883 49.933296 -16.701805 -16.743526 28.476519 -4e-06 -12.690595 -0.0 17.256147 -17.420952 2.402267 -0.10592 -1.513857 -4.275881 -5.039039 -5.612869 -2.953555 4e-06 -11.02052 -2e-06 -6.111293 -15.895328 -3.840471 0.0 -1e-06 1e-06 -10.283365 -5.680287 -4.341838 11.02829 -11.302404 -2.372632 -1.384269 -14.238575 -6.320121 -0.625437 -26.924179 -3.827601 -3.981094 -50.049892 -3.966342 -13.70852 -7.363474 -3.720938 18.141146 -14.052735 -3.242674 5e-06 -18.787268 -2e-06 -0.429712 -8.456041 2.555503 0.0 1e-06 -0.0 -15.923532 -20.094479 -5.473584 30.419197 -7.190822 1.735927 1e-06 -8.162921 -1e-06 -1.861901 -22.861462 -6.167942 1e-06 -3e-06 -2e-06 92.587044 -10.538138 10.173575 135.512253 0.611497 0.911635 -91.12114 20.874657 -15.211108 -24.500317 1.544949 1.754042 -1.0 0.0 1e-06 -38.204628 -3.588314 -1.627564 91.731567 -1.456801 0.378529 -94.950562 9.427467 -8.186541 -32.9137 0.800713 1.169307 -1.000003 0.0 -0.0 
0.0 0.0 0.0 0.0 -0.0 0.0 -2.419105 48.723446 1.878112 95.739967 -57.118816 83.228996 11.778149 -2.986345 -0.858036 -5.526705 -1.306023 0.935566 21.329712 -2.84249 -1.018513 26.70891 1.640254 3.063731 -2.820185 -0.686137 3.456898 -29.813866 -0.350344 3.087463 6e-06 0.0 -0.0 -0.141164 -0.082444 0.022883 -0.025206 -0.134151 0.062391 -0.036957 -0.024785 -0.037715 -56.609962 -72.425041 68.344025 91.427803 -7.039831 -36.001839 30.432602 -1.720714 -0.673859 42.73978 79.249992 52.616104 17.636631 -26.322721 52.411182 -19.466661 -14.395597 29.410385 -1e-06 -8.774821 -2e-06 15.013656 -18.111609 7.015644 -0.609777 -1.795654 -3.889327 -4.807087 -11.046811 -2.93785 6e-06 -20.976019 -1e-06 -5.01997 -25.033564 -4.031881 6e-06 0.0 1e-06 -10.634535 -5.686971 -3.565588 10.573272 -17.922953 -3.113901 3e-06 -13.821209 1e-06 -0.501776 -31.181507 -4.027019 -11.350305 -58.867863 8.515563 -13.982712 -7.150198 -2.875042 13.772728 -8.401494 -3.21824 0.347736 -34.211555 0.771651 -0.963027 -17.73337 2.62102 -0.0 -0.0 0.0 -17.346416 -20.095217 -4.201783 21.757557 -1.638373 3.86643 1e-06 -6.338823 -1e-06 -1.697589 -22.591749 -6.194005 -0.0 -5e-06 -0.0 176.01886 -73.998672 11.042027 80.635788 15.233677 -31.471504 18.900715 -0.633495 -0.247479 -4.735268 59.099007 4.95204 22.182106 -20.375891 49.933308 -16.701811 -16.743528 28.476524 -3e-06 -12.690598 0.0 17.273834 -17.495955 2.468904 -0.105919 -1.513857 -4.275881 -5.039039 -5.612868 -2.953555 3e-06 -11.020519 -3e-06 -6.111295 -15.895328 -3.840469 -1e-06 -2e-06 0.0 -10.283367 -5.680288 -4.341837 11.028293 -11.302402 -2.372633 -1.384268 -14.238577 -6.320119 -0.625438 -26.924179 -3.8276 -3.972347 -50.214592 -3.983343 -13.708522 -7.363474 -3.720938 18.141146 -14.052736 -3.242674 6e-06 -18.787268 -1e-06 -0.429711 -8.456041 2.555502 -0.0 -0.0 0.0 -15.92353 -20.094477 -5.473581 30.419205 -7.190826 1.735921 2e-06 -8.162922 1e-06 -1.861899 -22.861464 -6.167942 -0.0 -4e-06 -1e-06 94.007652 -10.197412 9.62832 134.125656 0.676861 0.935297 -88.920616 20.321463 -14.581703 -25.758604 1.552744 1.73055 -0.999998 0.0 -0.0 -36.961475 -3.891199 -1.356688 89.966492 -1.759237 0.442143 -94.627609 9.776252 -8.187641 -33.331017 0.804239 1.187186 -1.000003 0.0 -0.0 
